<mxfile host="app.diagrams.net" modified="2023-01-05T21:58:37.514Z" agent="5.0 (Macintosh; Intel Mac OS X 10_15_7) AppleWebKit/537.36 (KHTML, like Gecko) Chrome/108.0.0.0 Safari/537.36" version="20.8.1" etag="gLXriNOvInOVisEOxoOo" type="github">
  <diagram id="3BLNDf7WAw_VyQK-qgkP" name="Page-1">
    <mxGraphModel dx="637" dy="463" grid="1" gridSize="10" guides="1" tooltips="1" connect="1" arrows="1" fold="1" page="1" pageScale="1" pageWidth="850" pageHeight="1100" math="0" shadow="0">
      <root>
        <mxCell id="0" />
        <mxCell id="1" parent="0" />
        <mxCell id="eU9Ldcz-xGVGo0lGxh9K-24" value="" style="verticalLabelPosition=bottom;verticalAlign=top;html=1;shape=mxgraph.basic.half_circle;flipV=1;" vertex="1" parent="1">
          <mxGeometry x="90" y="396" width="200" height="124" as="geometry" />
        </mxCell>
        <mxCell id="eU9Ldcz-xGVGo0lGxh9K-1" value="" style="swimlane;startSize=0;" vertex="1" parent="1">
          <mxGeometry x="90" y="120" width="100" height="400" as="geometry" />
        </mxCell>
        <mxCell id="eU9Ldcz-xGVGo0lGxh9K-2" value="" style="swimlane;startSize=0;" vertex="1" parent="1">
          <mxGeometry x="190" y="124" width="100" height="272" as="geometry" />
        </mxCell>
        <mxCell id="eU9Ldcz-xGVGo0lGxh9K-3" value="" style="swimlane;startSize=0;" vertex="1" parent="1">
          <mxGeometry x="290" y="151" width="100" height="139" as="geometry" />
        </mxCell>
        <mxCell id="eU9Ldcz-xGVGo0lGxh9K-4" value="" style="swimlane;startSize=0;" vertex="1" parent="1">
          <mxGeometry x="390" y="173" width="100" height="57" as="geometry" />
        </mxCell>
        <mxCell id="eU9Ldcz-xGVGo0lGxh9K-6" value="" style="swimlane;startSize=0;" vertex="1" parent="1">
          <mxGeometry x="490" y="189" width="100" height="20" as="geometry" />
        </mxCell>
        <mxCell id="eU9Ldcz-xGVGo0lGxh9K-7" value="" style="swimlane;startSize=0;" vertex="1" parent="1">
          <mxGeometry x="590" y="197" width="100" height="6" as="geometry" />
        </mxCell>
        <mxCell id="eU9Ldcz-xGVGo0lGxh9K-25" value="" style="html=1;shadow=0;dashed=0;align=center;verticalAlign=middle;shape=mxgraph.arrows2.arrow;dy=0.41;dx=65.14;direction=south;notch=0;" vertex="1" parent="1">
          <mxGeometry x="155" y="520" width="170" height="210" as="geometry" />
        </mxCell>
      </root>
    </mxGraphModel>
  </diagram>
</mxfile>
